<?xml version="1.0" encoding="UTF-8"?>
<svg width="374px" height="85px" viewBox="0 0 374 85" version="1.1" xmlns="http://www.w3.org/2000/svg" xmlns:xlink="http://www.w3.org/1999/xlink">
    <title>Logo / DigiH</title>
    <g id="Symbols" stroke="none" stroke-width="1" fill="none" fill-rule="evenodd">
        <g id="=-MENU-/-desktop" transform="translate(-47.000000, -29.000000)">
            <g id="Group" transform="translate(48.500000, 24.000000)">
                <g id="Group-32" transform="translate(-0.610390, 4.883087)">
                    <path d="M51.8831169,41.8118656 C51.8831169,56.1389943 40.2685389,67.7532763 25.9415584,67.7532763 C11.614578,67.7532763 0,56.1389943 0,41.8118656 C0,27.4844414 11.614578,15.8701594 25.9415584,15.8701594 C40.2685389,15.8701594 51.8831169,27.4844414 51.8831169,41.8118656" id="Fill-1" fill="#C0DF88"></path>
                    <g id="Group-5" transform="translate(12.207792, 0.000000)" fill="#46AE33">
                        <path d="M12.7174666,0 C12.7174666,0 -9.79933305,59.2244553 36.6233766,17.3779854 C33.3499804,26.1406774 24.1249548,33.624043 16.758623,38.7443027 C14.0071847,40.7130653 12.5662952,45.5385275 16.758623,49.870396 C20.9509508,54.2022645 36.3257952,58.0429024 36.3257952,58.0429024 C36.3257952,58.0429024 24.3234416,62.1783377 10.3371124,55.08902 C7.55978455,60.5040772 13.8089955,79.4089243 15.9911604,84.2337958 C2.20331805,73.9932764 -10.1960091,31.1622774 12.7174666,0" id="Fill-3"></path>
                    </g>
                    <path d="M31.1298701,25.3311984 C31.1298701,28.1964213 28.8070821,30.5195101 25.9415584,30.5195101 C23.0763355,30.5195101 20.7532468,28.1964213 20.7532468,25.3311984 C20.7532468,22.4656747 23.0763355,20.1428867 25.9415584,20.1428867 C28.8070821,20.1428867 31.1298701,22.4656747 31.1298701,25.3311984" id="Fill-6" fill="#46AE33"></path>
                    <path d="M25.3904187,37.9839046 C26.1709315,36.1385659 24.9323434,34.853772 23.9266598,34.4650118 C22.4156061,33.8808242 21.4709001,34.8190559 21.2549503,35.0671561 C21.2959986,34.7400469 21.3658997,33.4061717 19.9292089,32.6573819 C18.9723074,32.1587873 17.1950346,32.0797783 16.3416462,33.8921967 C14.6360592,37.5158362 18.1061286,42.1169127 18.1061286,42.1169127 C18.1061286,42.1169127 23.8302855,41.6730856 25.3904187,37.9839046" id="Fill-8" fill="#FFFFFF"></path>
                    <path d="M75.5380921,54.3247049 C71.611527,54.3247049 68.620954,53.2403134 66.5646032,51.0712374 C64.5085474,48.9021614 63.4805195,45.8215637 63.4805195,41.8291513 C63.4805195,39.8446651 63.7940901,38.0734826 64.4215264,36.5158968 C65.0489626,34.9583109 65.9079633,33.6430358 67.0002982,32.5697783 C68.0920432,31.4968138 69.3926386,30.6831539 70.9032644,30.1293847 C72.4133002,29.5756155 74.0510652,29.2987308 75.8171493,29.2987308 C76.8389825,29.2987308 77.7687799,29.3740317 78.6050665,29.5237545 C79.4413532,29.6743563 80.1732147,29.8472261 80.800356,30.0429498 C81.4274972,30.2392595 81.9502133,30.4411362 82.3685041,30.64858 C82.786795,30.8566097 83.0882711,31.0183454 83.2747026,31.1334943 L81.7062595,35.4947932 C80.9628935,35.1027597 80.0976982,34.7678612 79.1103784,34.4909766 C78.1224687,34.214092 77.001815,34.0757962 75.7472375,34.0757962 C74.9109508,34.0757962 74.0920683,34.214092 73.29059,34.4909766 C72.4888168,34.7678612 71.7799642,35.2123416 71.1646224,35.8235387 C70.5489856,36.4350289 70.0548833,37.2255418 69.6837903,38.1944914 C69.3118123,39.1637341 69.1262658,40.3407134 69.1262658,41.7254295 C69.1262658,42.8329679 69.2480952,43.8660845 69.4920491,44.8233141 C69.7360029,45.7811298 70.1306948,46.6059237 70.6770098,47.2982817 C71.2224398,47.9906397 71.936897,48.5388419 72.8200866,48.9423024 C73.7026861,49.3460558 74.7714222,49.5479325 76.0262947,49.5479325 C76.8156785,49.5479325 77.524826,49.5022246 78.1516723,49.4099297 C78.7791086,49.3173419 79.336633,49.208053 79.8245407,49.0808912 C80.3124483,48.9540224 80.7422436,48.8098666 81.1139266,48.6481308 C81.4856096,48.486981 81.8224841,48.3366722 82.1248453,48.1980834 L83.6233766,52.5248084 C82.8564118,52.9865757 81.7761713,53.4017562 80.3823601,53.7709356 C78.988549,54.1398221 77.373203,54.3247049 75.5380921,54.3247049" id="Fill-10" fill="#46AE33"></path>
                    <path d="M86.6753247,53.7143153 L86.6753247,27.688008 L91.8837004,26.8571724 L91.8837004,35.5788959 C92.2334505,35.4637624 92.6817342,35.3539023 93.2297351,35.2501943 C93.7768483,35.1464864 94.3070954,35.0946324 94.8201805,35.0946324 C96.3109086,35.0946324 97.5518999,35.296775 98.5428583,35.7001815 C99.5329291,36.1038809 100.325637,36.6751536 100.919797,37.4134138 C101.514254,38.1519669 101.933836,39.0287973 102.178542,40.0433191 C102.422953,41.0590127 102.545455,42.1892539 102.545455,43.4355074 L102.545455,53.7143153 L97.3367829,53.7143153 L97.3367829,44.0580482 C97.3367829,42.3969628 97.12137,41.220141 96.6902483,40.5281685 C96.2588308,39.8359032 95.4607971,39.489624 94.2955554,39.489624 C93.829222,39.489624 93.3924783,39.5303455 92.9847325,39.6109096 C92.5766908,39.6920596 92.2097787,39.7787759 91.8837004,39.8704725 L91.8837004,53.7143153 L86.6753247,53.7143153 Z" id="Fill-12" fill="#46AE33"></path>
                    <path d="M118.743811,40.4415548 C118.267319,40.3243358 117.708643,40.2011514 117.065968,40.0717034 C116.423294,39.9428519 115.73288,39.8778296 114.995632,39.8778296 C114.662058,39.8778296 114.263823,39.9076563 113.800022,39.9658185 C113.335919,40.0248754 112.984517,40.0893011 112.747027,40.1596922 L112.747027,54.3247049 L107.428571,54.3247049 L107.428571,36.7770427 C108.379742,36.4486504 109.504346,36.1375576 110.801479,35.8431678 C112.09831,35.549971 113.543798,35.4026269 115.138549,35.4026269 C115.424082,35.4026269 115.768533,35.420523 116.173717,35.4557185 C116.577995,35.4912123 116.982272,35.5383386 117.387154,35.5965007 C117.791734,35.6555576 118.196012,35.7259487 118.600893,35.8082705 C119.005171,35.8908905 119.350831,35.9902135 119.636364,36.1074326 L118.743811,40.4415548 Z" id="Fill-14" fill="#46AE33"></path>
                    <path d="M133.785298,44.5232549 C133.785298,42.9012197 133.460595,41.6265716 132.811189,40.6978184 C132.161483,39.7696621 131.234746,39.304987 130.030976,39.304987 C128.826607,39.304987 127.893273,39.7696621 127.232774,40.6978184 C126.571375,41.6265716 126.240676,42.9012197 126.240676,44.5232549 C126.240676,46.1449917 126.571375,47.4321743 127.232774,48.3842061 C127.893273,49.3356409 128.826607,49.8119552 130.030976,49.8119552 C131.234746,49.8119552 132.161483,49.3356409 132.811189,48.3842061 C133.460595,47.4321743 133.785298,46.1449917 133.785298,44.5232549 M139.168831,44.5232549 C139.168831,45.9808483 138.95656,47.314588 138.531118,48.5247725 C138.106276,49.7355539 137.491949,50.7696573 136.689336,51.6273812 C135.887023,52.4860004 134.924307,53.1494381 133.802987,53.6194851 C132.681068,54.0892337 131.423631,54.3247049 130.030976,54.3247049 C128.661107,54.3247049 127.415363,54.0892337 126.294044,53.6194851 C125.172124,53.1494381 124.209708,52.4860004 123.407395,51.6273812 C122.604183,50.7696573 121.978462,49.7355539 121.529935,48.5247725 C121.081107,47.314588 120.857143,45.9808483 120.857143,44.5232549 C120.857143,43.0659599 121.087103,41.7378906 121.547924,40.5390469 C122.008144,39.3402032 122.645857,38.3180375 123.460163,37.4719529 C124.275369,36.6258683 125.243181,35.9678025 126.364801,35.4971586 C127.48612,35.0277085 128.708179,34.7922373 130.030976,34.7922373 C131.376859,34.7922373 132.610311,35.0277085 133.73193,35.4971586 C134.85325,35.9678025 135.815966,36.6258683 136.618879,37.4719529 C137.421491,38.3180375 138.046912,39.3402032 138.496039,40.5390469 C138.944567,41.7378906 139.168831,43.0659599 139.168831,44.5232549" id="Fill-16" fill="#46AE33"></path>
                    <path d="M142.831169,36.4577238 C143.716476,36.1999038 144.85832,35.959649 146.256702,35.7366615 C147.655085,35.5139718 149.123001,35.4026269 150.660749,35.4026269 C152.222167,35.4026269 153.521426,35.608347 154.558821,36.0180009 C155.595328,36.4285478 156.417018,37.0090893 157.022707,37.7593274 C157.628693,38.5095656 158.059806,39.4006222 158.316344,40.431902 C158.572586,41.4640749 158.701299,42.6126537 158.701299,43.8788295 L158.701299,54.3247049 L153.492428,54.3247049 L153.492428,44.5117685 C153.492428,42.8237326 153.27051,41.6278173 152.828744,40.9246179 C152.385499,40.2211208 151.558187,39.8692234 150.346216,39.8692234 C149.973689,39.8692234 149.57749,39.8870862 149.157621,39.9222164 C148.738343,39.9573466 148.365224,39.9987288 148.039152,40.0451721 L148.039152,54.3247049 L142.831169,54.3247049 L142.831169,36.4577238 Z" id="Fill-18" fill="#46AE33"></path>
                    <path d="M163.488344,54.3247049 L168.597273,54.3247049 L168.597273,35.8823628 L163.488344,35.8823628 L163.488344,54.3247049 Z M169.077922,30.5529593 C169.077922,31.5115812 168.774324,32.2654201 168.168868,32.814476 C167.563123,33.3641254 166.848824,33.6383566 166.025684,33.6383566 C165.203124,33.6383566 164.488245,33.3641254 163.88279,32.814476 C163.277044,32.2654201 162.974026,31.5115812 162.974026,30.5529593 C162.974026,29.5946342 163.277044,28.8407953 163.88279,28.2917394 C164.488245,27.7426835 165.203124,27.467562 166.025684,27.467562 C166.848824,27.467562 167.563123,27.7426835 168.168868,28.2917394 C168.774324,28.8407953 169.077922,29.5946342 169.077922,30.5529593 L169.077922,30.5529593 Z" id="Fill-20" fill="#46AE33"></path>
                    <path d="M179.04921,50.058702 C179.996388,50.058702 180.666866,49.965288 181.060057,49.776371 C181.452661,49.5886478 181.648963,49.2242439 181.648963,48.6837562 C181.648963,48.2602597 181.394563,47.8901853 180.886642,47.5726376 C180.377842,47.2553883 179.603784,46.8972518 178.563883,46.4973327 C177.754908,46.1926182 177.021343,45.8753689 176.362896,45.5458833 C175.704155,45.2163977 175.143711,44.8230445 174.681565,44.3643313 C174.219126,43.9065134 173.860853,43.3597583 173.60704,42.7252598 C173.352346,42.0904628 173.225586,41.3270351 173.225586,40.4334845 C173.225586,38.6941348 173.860853,37.3191889 175.132561,36.3083486 C176.403095,35.2978067 178.148099,34.7922373 180.366692,34.7922373 C181.475841,34.7922373 182.538923,34.8922171 183.555351,35.0918782 C184.572071,35.2918378 185.38134,35.5094057 185.981983,35.7442836 L185.081165,39.8339042 C184.479642,39.6223052 183.82677,39.434582 183.121961,39.2698392 C182.417445,39.1056933 181.625782,39.0230235 180.748145,39.0230235 C179.129902,39.0230235 178.321513,39.4814382 178.321513,40.3982677 C178.321513,40.6095683 178.355844,40.7981868 178.425093,40.9623327 C178.494635,41.1270755 178.633425,41.2855509 178.841464,41.4383559 C179.04921,41.5911608 179.331779,41.7565005 179.690638,41.9340765 C180.048325,42.111951 180.505189,42.3074338 181.060057,42.5202266 C182.191801,42.9473044 183.127829,43.3678164 183.867262,43.782061 C184.606989,44.1974993 185.190613,44.6448715 185.618135,45.1253714 C186.04595,45.6061697 186.346124,46.1397931 186.519539,46.7262416 C186.692954,47.3123917 186.779221,47.9928511 186.779221,48.766426 C186.779221,50.5959068 186.103461,51.9795075 184.751648,52.9178252 C183.399835,53.8552476 181.486992,54.3247049 179.014879,54.3247049 C177.396635,54.3247049 176.050984,54.1835394 174.976165,53.9018053 C173.901346,53.6194744 173.156044,53.3848949 172.74026,53.1965748 L173.60704,48.9305719 C174.484677,49.2827395 175.386374,49.5594 176.310666,49.7590611 C177.234664,49.9590206 178.148099,50.058702 179.04921,50.058702" id="Fill-22" fill="#46AE33"></path>
                    <path d="M189.831169,44.5583219 C189.831169,43.2185928 190.043288,41.9555647 190.468402,40.7683421 C190.893807,39.581418 191.50799,38.5472988 192.312408,37.665686 C193.117119,36.7843717 194.0931,36.0851102 195.242687,35.5676029 C196.39169,35.050991 197.701168,34.7922373 199.172289,34.7922373 C200.137183,34.7922373 201.02184,34.8802792 201.826258,35.056363 C202.630385,35.2327453 203.411754,35.48553 204.170365,35.8144187 L203.101599,40.0102865 C202.619006,39.8222648 202.090021,39.657522 201.516103,39.516655 C200.941602,39.3754895 200.297658,39.305056 199.585732,39.305056 C198.069094,39.305056 196.937014,39.787048 196.190367,40.7507337 C195.443719,41.7147179 195.070541,42.9840134 195.070541,44.5583219 C195.070541,46.2275365 195.420669,47.5201109 196.122092,48.4369404 C196.822639,49.3534715 198.046044,49.8118862 199.792599,49.8118862 C200.413201,49.8118862 201.079027,49.7533906 201.791537,49.6358024 C202.504048,49.5182143 203.158787,49.330491 203.756922,49.0717374 L204.480519,53.3726586 C203.882384,53.6314122 203.13632,53.8540538 202.239701,54.0429708 C201.343957,54.230694 200.355429,54.3247049 199.275285,54.3247049 C197.620931,54.3247049 196.19591,54.0722186 195.001682,53.5666492 C193.806579,53.0616767 192.824179,52.3740546 192.054481,51.5040813 C191.2842,50.6350033 190.721369,49.6065546 190.365406,48.419332 C190.008859,47.2324079 189.831169,45.9458025 189.831169,44.5583219" id="Fill-23" fill="#46AE33"></path>
                    <path d="M208.142857,53.7143153 L208.142857,27.688008 L213.350937,26.8571724 L213.350937,35.5788959 C213.700983,35.4637624 214.149267,35.3539023 214.696972,35.2501943 C215.244381,35.1464864 215.774628,35.0946324 216.287417,35.0946324 C217.778441,35.0946324 219.019432,35.296775 220.010391,35.7001815 C221.000462,36.1038809 221.793169,36.6751536 222.387626,37.4134138 C222.981491,38.1519669 223.400776,39.0287973 223.645779,40.0433191 C223.890782,41.0590127 224.012987,42.1892539 224.012987,43.4355074 L224.012987,53.7143153 L218.804315,53.7143153 L218.804315,44.0580482 C218.804315,42.3969628 218.588902,41.220141 218.157485,40.5281685 C217.726363,39.8359032 216.928034,39.489624 215.763384,39.489624 C215.296754,39.489624 214.860011,39.5303455 214.452561,39.6109096 C214.044519,39.6920596 213.677015,39.7787759 213.350937,39.8704725 L213.350937,53.7143153 L208.142857,53.7143153 Z" id="Fill-24" fill="#46AE33"></path>
                    <path d="M254.150411,33.7142047 C253.409516,34.4895961 252.529023,35.493728 251.510401,36.7263021 C250.491486,37.9594727 249.438186,39.3044785 248.349619,40.760425 C247.261346,42.2172662 246.184829,43.7200344 245.119186,45.2702208 C244.053836,46.8204071 243.104573,48.3002118 242.271102,49.7093366 L254.532468,49.7093366 L254.532468,54.3247049 L235.61039,54.3247049 L235.61039,51.0480797 C236.258416,49.8503982 237.05133,48.5176196 237.988838,47.0497441 C238.926345,45.5815702 239.903822,44.102362 240.922737,42.6100318 C241.941064,41.1188944 242.976437,39.6745788 244.030031,38.2767867 C245.082743,36.879591 246.061102,35.628825 246.963636,34.5244887 L236.165841,34.5244887 L236.165841,29.9091204 L254.150411,29.9091204 L254.150411,33.7142047 Z" id="Fill-25" fill="#46AE33"></path>
                    <path d="M269.901881,44.5232549 C269.901881,42.9012197 269.577178,41.6265716 268.928072,40.6978184 C268.278366,39.7696621 267.352228,39.304987 266.147859,39.304987 C264.94349,39.304987 264.010156,39.7696621 263.349657,40.6978184 C262.688259,41.6265716 262.357859,42.9012197 262.357859,44.5232549 C262.357859,46.1449917 262.688259,47.4321743 263.349657,48.3842061 C264.010156,49.3356409 264.94349,49.8119552 266.147859,49.8119552 C267.352228,49.8119552 268.278366,49.3356409 268.928072,48.3842061 C269.577178,47.4321743 269.901881,46.1449917 269.901881,44.5232549 M275.285714,44.5232549 C275.285714,45.9808483 275.073743,47.314588 274.648301,48.5247725 C274.223459,49.7355539 273.608832,50.7696573 272.806219,51.6273812 C272.003906,52.4860004 271.04119,53.1494381 269.91987,53.6194851 C268.797951,54.0892337 267.540814,54.3247049 266.147859,54.3247049 C264.77799,54.3247049 263.532246,54.0892337 262.410927,53.6194851 C261.289008,53.1494381 260.326592,52.4860004 259.523979,51.6273812 C258.721366,50.7696573 258.095346,49.7355539 257.646818,48.5247725 C257.19829,47.314588 256.974026,45.9808483 256.974026,44.5232549 C256.974026,43.0659599 257.203986,41.7378906 257.664807,40.5390469 C258.125327,39.3402032 258.76304,38.3180375 259.577346,37.4719529 C260.392252,36.6258683 261.360064,35.9678025 262.481984,35.4971586 C263.603303,35.0277085 264.824762,34.7922373 266.147859,34.7922373 C267.493443,34.7922373 268.727194,35.0277085 269.848813,35.4971586 C270.970133,35.9678025 271.932849,36.6258683 272.736061,37.4719529 C273.538375,38.3180375 274.163795,39.3402032 274.612923,40.5390469 C275.06145,41.7378906 275.285714,43.0659599 275.285714,44.5232549" id="Fill-26" fill="#46AE33"></path>
                    <path d="M290.263269,40.4415548 C289.786766,40.3243358 289.22868,40.2011514 288.585989,40.0717034 C287.943299,39.9428519 287.252566,39.8778296 286.5153,39.8778296 C286.181717,39.8778296 285.783775,39.9076563 285.31966,39.9658185 C284.855545,40.0248754 284.503833,40.0893011 284.266337,40.1596922 L284.266337,54.3247049 L278.948052,54.3247049 L278.948052,36.7770427 C279.899548,36.4486504 281.023878,36.1375576 282.321043,35.8431678 C283.617906,35.549971 285.06343,35.4026269 286.658221,35.4026269 C286.943458,35.4026269 287.288522,35.420523 287.693716,35.4557185 C288.098004,35.4912123 288.502292,35.5383386 288.907183,35.5965007 C289.311773,35.6555576 289.716061,35.7259487 290.120953,35.8082705 C290.52524,35.8908905 290.870305,35.9902135 291.155844,36.1074326 L290.263269,40.4415548 Z" id="Fill-27" fill="#46AE33"></path>
                    <path d="M298.216756,43.90252 C298.216756,46.8452259 299.375005,48.3164294 301.691505,48.3164294 C302.218935,48.3164294 302.711999,48.2458882 303.170988,48.1045068 C303.629687,47.9631254 304.019362,47.7987284 304.340888,47.6101202 L304.340888,39.2061467 C304.088385,39.15892 303.79045,39.1176713 303.446499,39.0824006 C303.101965,39.04713 302.700641,39.0294947 302.241942,39.0294947 C300.888564,39.0294947 299.879428,39.4886106 299.213951,40.4065436 C298.548766,41.3244765 298.216756,42.4899016 298.216756,43.90252 L298.216756,43.90252 Z M309.467532,51.4591019 C309.467532,54.4959624 308.715559,56.7493966 307.213649,58.2214968 C305.711158,59.6921025 303.388834,60.428601 300.246678,60.428601 C299.145802,60.428601 298.044344,60.3278705 296.943176,60.1279039 C295.842301,59.9279374 294.821515,59.66281 293.881402,59.3334182 L294.776373,54.9195088 C295.578731,55.2489005 296.42128,55.5074522 297.305184,55.6966581 C298.187632,55.8846685 299.191235,55.9788231 300.315701,55.9788231 C301.782953,55.9788231 302.820922,55.6488336 303.429024,54.9903489 C304.036836,54.3309676 304.340888,53.4838748 304.340888,52.447576 L304.340888,51.7768364 C303.79045,52.0362847 303.222537,52.230572 302.638025,52.3596984 C302.052638,52.4891236 301.416577,52.5539857 300.728384,52.5539857 C298.228114,52.5539857 296.312066,51.7947706 294.982278,50.2763403 C293.651616,48.7579101 292.987013,46.6336022 292.987013,43.90252 C292.987013,42.5374273 293.192918,41.2954829 293.606183,40.1772845 C294.019157,39.0593851 294.621144,38.0996056 295.412435,37.2991418 C296.203434,36.4989769 297.17238,35.881442 298.319854,35.4453417 C299.466745,35.0101381 300.762458,34.7922373 302.207868,34.7922373 C302.827329,34.7922373 303.46339,34.8218288 304.117509,34.8804139 C304.770753,34.9392979 305.418756,35.0161161 306.061224,35.109673 C306.70282,35.2041265 307.317038,35.3162153 307.901842,35.4453417 C308.486937,35.5750658 309.008252,35.7101703 309.467532,35.8512528 L309.467532,51.4591019 Z" id="Fill-28" fill="#46AE33"></path>
                    <path d="M330.542662,54.3247049 C328.986979,51.5297171 327.304259,48.7705165 325.493619,46.0456122 C323.682979,43.3207078 321.755912,40.7490924 319.713305,38.3292747 L319.713305,54.3247049 L314.350649,54.3247049 L314.350649,29.9091204 L318.773057,29.9091204 C319.539403,30.6842136 320.386216,31.635261 321.314969,32.7628591 C322.243132,33.8904571 323.189275,35.0944014 324.153103,36.3743937 C325.116046,37.6546842 326.073389,38.9814982 327.025427,40.3551339 C327.976876,41.7293661 328.871438,43.0505137 329.706755,44.3188752 L329.706755,29.9091204 L335.103896,29.9091204 L335.103896,54.3247049 L330.542662,54.3247049 Z" id="Fill-29" fill="#46AE33"></path>
                    <path d="M352.096112,42.6899223 C352.072976,42.2437507 351.997712,41.8086215 351.870904,41.38543 C351.744096,40.9622385 351.547589,40.5864993 351.282845,40.2570187 C351.017808,39.9284335 350.682779,39.6577461 350.279513,39.4461503 C349.875661,39.234853 349.373995,39.1289059 348.774808,39.1289059 C348.197584,39.1289059 347.702068,39.2291826 347.287088,39.4288407 C346.871523,39.6284987 346.525657,39.8929188 346.248906,40.2218025 C345.972155,40.5512831 345.758954,40.9329911 345.609011,41.3678219 C345.458775,41.8029511 345.349539,42.2437507 345.280131,42.6899223 L352.096112,42.6899223 Z M339.987013,44.6996344 C339.987013,43.0546191 340.234185,41.6146339 340.730873,40.3805739 C341.226389,39.146514 341.877998,38.1186779 342.685408,37.2955734 C343.492525,36.4730657 344.420885,35.8499177 345.470489,35.4270246 C346.519507,35.0038331 347.598689,34.7922373 348.705693,34.7922373 C351.288702,34.7922373 353.329923,35.5977338 354.829357,37.2075328 C356.328498,38.8176303 357.077922,41.1857719 357.077922,44.3116591 C357.077922,44.6175627 357.066208,44.9527137 357.043658,45.3165152 C357.019936,45.6815104 356.9968,46.0038283 356.97425,46.286155 L345.280131,46.286155 C345.39581,47.3674123 345.891326,48.2251362 346.767851,48.8599235 C347.644082,49.4947108 348.820494,49.8119552 350.296791,49.8119552 C351.24243,49.8119552 352.170498,49.7236162 353.082165,49.5475351 C353.992661,49.3711555 354.736521,49.1541878 355.313745,48.8948412 L356.005768,53.1613758 C355.728725,53.3019423 355.35943,53.4431056 354.898179,53.5842689 C354.436927,53.7257307 353.92384,53.8489875 353.358624,53.9546361 C352.793114,54.0599863 352.187777,54.1486238 351.54261,54.2190562 C350.896565,54.2897871 350.250227,54.3247049 349.604768,54.3247049 C347.966812,54.3247049 346.543229,54.0778929 345.331967,53.5842689 C344.121292,53.0909434 343.11796,52.4155679 342.322264,51.5569487 C341.526568,50.6992249 340.937923,49.6827296 340.558086,48.5074628 C340.177371,47.3321961 339.987013,46.06292 339.987013,44.6996344 L339.987013,44.6996344 Z" id="Fill-30" fill="#46AE33"></path>
                    <path d="M360.74026,30.7546056 L365.951867,29.9091204 L365.951867,35.3700303 L372.213435,35.3700303 L372.213435,39.7388178 L365.951867,39.7388178 L365.951867,46.2569569 C365.951867,47.3610085 366.14433,48.2416849 366.529256,48.8992845 C366.914183,49.5571824 367.689069,49.885833 368.855396,49.885833 C369.41502,49.885833 369.991817,49.8330461 370.586973,49.7268759 C371.18124,49.621302 371.723986,49.4751688 372.213435,49.2863885 L372.948052,53.3733476 C372.318253,53.6325105 371.618575,53.8549909 370.849315,54.0431747 C370.079758,54.2307621 369.135208,54.3247049 368.015664,54.3247049 C366.592917,54.3247049 365.415043,54.1308546 364.482929,53.7437507 C363.549926,53.3560502 362.804057,52.8159537 362.244434,52.1225664 C361.684218,51.4306702 361.293665,50.5905532 361.072185,49.6037064 C360.850704,48.6171579 360.74026,47.5247374 360.74026,46.3270412 L360.74026,30.7546056 Z" id="Fill-31" fill="#46AE33"></path>
                </g>
            </g>
        </g>
    </g>
</svg>